<?xml version="1.0" encoding="UTF-8" standalone="no"?>
<!-- Created with Inkscape (http://www.inkscape.org/) -->

<svg
   width="660.29218"
   height="372.35962"
   viewBox="0 0 660.29218 372.35962"
   version="1.1"
   id="svg5"
   xml:space="preserve"
   inkscape:version="1.2 (dc2aedaf03, 2022-05-15)"
   sodipodi:docname="LogoTulipann.svg"
   xmlns:inkscape="http://www.inkscape.org/namespaces/inkscape"
   xmlns:sodipodi="http://sodipodi.sourceforge.net/DTD/sodipodi-0.dtd"
   xmlns="http://www.w3.org/2000/svg"
   xmlns:svg="http://www.w3.org/2000/svg"><sodipodi:namedview
     id="namedview7"
     pagecolor="#ffffff"
     bordercolor="#000000"
     borderopacity="0.25"
     inkscape:showpageshadow="2"
     inkscape:pageopacity="0.0"
     inkscape:pagecheckerboard="0"
     inkscape:deskcolor="#d1d1d1"
     inkscape:document-units="px"
     showgrid="false"
     inkscape:zoom="0.48337378"
     inkscape:cx="173.77856"
     inkscape:cy="213.08562"
     inkscape:window-width="1366"
     inkscape:window-height="697"
     inkscape:window-x="-8"
     inkscape:window-y="-8"
     inkscape:window-maximized="1"
     inkscape:current-layer="layer1" /><defs
     id="defs2" /><g
     inkscape:label="Capa 1"
     inkscape:groupmode="layer"
     id="layer1"
     transform="translate(-316.17948,-187.11624)"><path
       style="fill:#ef4444;fill-opacity:1;stroke-width:1.84204"
       d="m 438.43875,557.83713 c -8.45752,-2.29125 -17.86771,-7.65232 -22.19674,-12.64569 -1.71972,-1.98364 -1.57373,-3.05342 0.65874,-4.82706 2.33908,-1.85836 4.51366,-1.65315 11.78999,1.11259 7.2027,2.73774 13.63811,3.36778 33.39681,3.26967 13.4612,-0.0669 31.25257,-1.086 39.53638,-2.26476 49.68723,-7.07039 85.62376,-11.63498 115.78511,-14.7068 8.80155,-0.89639 24.89845,-2.92031 35.77095,-4.49758 22.8782,-3.31893 48.389,-5.86316 72.4834,-7.22891 38.71758,-2.19463 75.54968,-4.14553 79.07278,-4.18828 2.0709,-0.0251 15.2026,-0.24453 29.1816,-0.4876 23.4989,-0.4086 45.1844,2.25016 45.1844,5.53985 0,1.43251 -28.9173,5.42716 -39.2872,5.42716 -4.4151,0 -9.5539,-0.78204 -11.4196,-1.73788 -2.185,-1.11943 -9.4145,-1.09421 -20.3154,0.0708 -9.3078,0.9948 -25.7288,2.13096 -36.4912,2.52478 -27.84208,1.0188 -63.03238,3.93671 -74.89328,6.20997 -5.5776,1.06901 -13.5751,1.94365 -17.7722,1.94365 -4.1971,0 -12.3417,0.81211 -18.0992,1.80466 -5.7574,0.99257 -24.447,3.86118 -41.53237,6.37471 -17.08536,2.51352 -41.6544,6.16737 -54.59786,8.11967 -51.28005,7.7347 -70.52399,9.96129 -99.78228,11.54517 -11.84128,0.64101 -20.78751,0.18203 -26.47283,-1.35818 z m 71.74597,-35.79103 c -4.40089,-6.92759 -7.72087,-16.50105 -14.07563,-40.5882 -5.09784,-19.32293 -4.75427,-24.32963 2.1723,-31.65652 3.51362,-3.71669 19.11042,-4.36317 25.58785,-1.06062 13.96199,7.11861 10.71954,26.0901 -6.75695,39.53476 -6.63125,5.10144 -7.31621,6.36474 -6.39558,11.79565 0.56709,3.34526 2.78436,8.43943 4.92727,11.32034 2.14291,2.88092 4.41879,7.73937 5.05751,10.79653 1.00792,4.82434 0.62923,5.55851 -2.86708,5.55851 -2.50367,0 -5.39901,-2.15756 -7.64969,-5.70045 z m 7.34629,-47.75955 c 5.19505,-6.32235 6.71518,-12.63558 3.84081,-15.95106 -2.7882,-3.2161 -13.38216,-3.54726 -16.54733,-0.51728 -2.37393,2.27255 -3.16099,18.00059 -1.00409,20.06535 2.88422,2.76105 10.02577,0.88744 13.71061,-3.59701 z m -155.3178,20.23635 c -3.41825,-4.99413 -8.21628,-28.51564 -8.31435,-40.75981 -0.0361,-4.5102 -1.08233,-9.17359 -2.3249,-10.36309 -1.33985,-1.28263 -7.78939,-2.16273 -15.84884,-2.16273 -14.94142,0 -19.54564,-1.04184 -19.54564,-4.42283 0,-1.57818 6.22354,-2.57058 21.18021,-3.37735 11.64911,-0.62835 28.25727,-1.69013 36.90702,-2.35947 14.7478,-1.14126 15.68427,-1.00546 15.04319,2.18122 -0.70864,3.52253 -5.04794,5.32241 -17.12055,7.1014 l -7.06006,1.04037 0.0151,11.18255 c 0.007,6.15041 1.69584,16.45423 3.75098,22.89737 4.98465,15.62759 4.99909,23.4296 0.0435,23.4296 -2.04708,0 -5.07325,-1.97425 -6.72484,-4.38723 z m 42.90112,-1.96951 c -8.81336,-10.23546 -13.03526,-35.65928 -7.19199,-43.30915 4.03341,-5.28043 5.80198,-1.76679 5.80198,11.52686 0,16.13481 5.09065,26.42423 13.07327,26.42423 9.1506,0 13.28432,-8.92589 13.28432,-28.6847 0,-16.63355 1.70632,-20.09849 7.59404,-15.4208 3.80343,3.02175 3.65809,25.62289 -0.2351,36.56079 -6.88612,19.34652 -21.69018,25.25539 -32.32652,12.90277 z m 50.68603,1.76625 c -1.2017,-2.52478 -2.18489,-7.12132 -2.18489,-10.21457 0,-3.09323 -1.38001,-14.80861 -3.06671,-26.03419 -2.47753,-16.48909 -2.61039,-20.93646 -0.69154,-23.1498 5.39133,-6.21872 8.26545,2.67799 13.1029,40.55945 1.07593,8.42564 1.95519,17.14415 1.95387,19.37447 -0.004,5.67307 -6.33573,5.30108 -9.11363,-0.53536 z m 21.41836,-0.68734 c -4.32848,-8.01287 -5.87514,-34.33418 -2.28431,-38.87513 3.73961,-4.72912 4.7428,-3.46841 8.09816,10.17696 4.84586,19.70687 6.28739,28.44028 5.15899,31.2553 -1.81201,4.5203 -7.91839,3.09726 -10.97284,-2.55713 z m 105.70791,-1.09418 -3.17417,-6.372 -7.02499,4.56972 c -10.00419,6.50768 -23.36792,6.41831 -29.77438,-0.19913 -7.78576,-8.04219 -5.19796,-27.64674 5.32678,-40.35424 4.00307,-4.83327 14.02389,-10.74748 18.21013,-10.74748 6.32727,0 14.83066,4.99142 17.70654,10.3936 1.44225,2.70917 3.59623,12.94417 4.78661,22.74445 1.1904,9.80029 2.56911,18.44562 3.06379,19.21184 1.40484,2.17601 -1.14592,7.12525 -3.67225,7.12525 -1.25065,0 -3.70228,-2.86741 -5.44806,-6.37201 z m -15.07893,-9.32604 c 7.55774,-4.72928 11.09107,-24.80946 5.62475,-31.96581 -5.64205,-7.38642 -22.78892,5.82337 -25.07665,19.31878 -2.69788,15.91519 5.60366,21.31261 19.4519,12.64703 z m 42.8449,12.61554 c -6.10758,-5.84673 -12.96907,-26.91463 -10.17511,-31.24227 2.11262,-3.27229 7.08534,-0.79619 7.80277,3.88526 0.6949,4.53449 5.32341,6.98171 5.32341,2.81463 0,-4.62102 10.99842,-12.0252 17.86262,-12.0252 8.2849,0 15.0039,7.59814 17.9812,20.33388 2.7704,11.85078 1.957,16.61279 -2.8378,16.61279 -2.983,0 -4.1028,-2.11924 -6.0924,-11.52949 -2.5712,-12.16115 -4.9738,-16.4058 -9.2863,-16.4058 -3.2851,0 -10.08013,10.43951 -10.08954,15.50099 -0.009,5.14497 -3.77543,15.13772 -5.7048,15.13772 -0.86022,0 -3.01305,-1.38713 -4.78405,-3.08251 z m 54.77609,-0.97262 c -4.1151,-5.58783 -10.5256,-25.99043 -9.2029,-29.28999 1.8161,-4.53065 5.8426,-3.02094 8.0405,3.01476 l 2.0813,5.71518 6.7217,-7.51746 c 5.6688,-6.3399 7.827,-7.51745 13.7776,-7.51745 12.0421,0 19.0083,10.3292 19.0083,28.18476 0,8.42701 -0.4905,9.83693 -3.2454,9.32903 -2.1546,-0.39722 -3.6865,-3.07243 -4.5581,-7.95995 -1.6667,-9.34632 -6.5123,-20.54246 -8.8906,-20.54246 -6.7276,0 -9.4623,4.93148 -14.2417,25.68244 -1.3836,6.0069 -5.4465,6.39268 -9.4907,0.90114 z m 61.1361,1.57238 c 0,-3.13571 4.0896,-6.41699 13.918,-11.16694 9.8098,-4.74098 10.9271,-9.801 3.3105,-14.99285 -3.0648,-2.08915 -6.8207,-3.79845 -8.3465,-3.79845 -4.8316,0 -16.1043,-5.24062 -20.0966,-9.34278 -2.1158,-2.17407 -3.8469,-5.82512 -3.8469,-8.11349 0,-5.12463 12.3512,-18.58926 17.0521,-18.58926 1.8894,0 3.9588,-0.81103 4.5987,-1.80228 1.6909,-2.61907 8.8386,-2.10396 13.0414,0.93983 4.4114,3.19488 4.2559,3.35128 -6.9002,6.94389 -13.5962,4.37836 -16.4959,6.65854 -16.4959,12.97145 0,6.0312 2.4142,7.79876 16.0028,11.71641 21.4206,6.17564 26.06188,12.30679 17.7625,23.4644 -7.5078,10.09334 -29.9999,18.91785 -29.9999,11.77007 z m 68.47468,-2.12539 c -1.7347,-2.53449 -3.5106,-8.81993 -3.9463,-13.96764 -1.1433,-13.50792 -3.7355,-18.73685 -10.3893,-20.95735 -3.1632,-1.05557 -7.2587,-1.91924 -9.1012,-1.91924 -1.8425,0 -4.8411,-1.41929 -6.6637,-3.15399 -3.15868,-3.00643 -2.83458,-3.19614 6.9256,-4.05512 l 10.2393,-0.90114 0.9709,-10.44628 c 0.8874,-9.54906 4.0982,-14.99666 7.6132,-12.91703 0.6783,0.40126 1.7516,4.9196 2.3852,10.04077 1.6237,13.12418 5.2483,16.36125 17.7015,15.80904 18.4191,-0.81678 17.4116,7.11791 -1.1078,8.72547 -6.3784,0.55367 -11.6573,1.90109 -11.7769,3.006 -0.4851,4.48015 0.6834,9.72418 4.347,19.5097 2.1205,5.66392 3.3561,11.54385 2.7457,13.0665 -1.6815,4.19479 -6.4119,3.31956 -9.9432,-1.83969 z m 37.8114,0.18436 c -3.6289,-3.47386 -4.6212,-6.29024 -4.6212,-13.11605 0,-13.03236 9.1871,-23.84898 23.1346,-27.23803 13.2418,-3.21757 22.3481,3.80244 22.7238,17.51757 0.5263,19.21388 -28.329,35.19348 -41.2372,22.83651 z m 24.7487,-10.71535 c 4.8255,-4.61936 6.4011,-7.67053 6.4011,-12.39527 0,-3.44712 -1.081,-7.12636 -2.4023,-8.17608 -3.2385,-2.57297 -13.1721,2.09198 -19.3,9.0636 -12.4366,14.14879 1.5522,24.66953 15.3012,11.50775 z m 36.9931,11.084 c -10.5874,-10.86176 -19.9777,-39.19952 -12.9896,-39.19952 1.6693,0 4.8616,3.43574 7.1069,7.64886 3.6666,6.88025 4.2853,7.31339 6.157,4.31044 8.3225,-13.35296 15.2344,-17.06681 23.8374,-12.80806 7.3043,3.61591 7.9575,11.66242 0.9466,11.66242 -2.5275,0 -5.0963,-0.77561 -5.7083,-1.72357 -1.8374,-2.84605 -6.1503,-0.15536 -8.5165,5.31337 -1.4605,3.37525 -1.7668,9.19422 -0.8944,16.99213 1.2278,10.9758 1.0543,11.85906 -2.3299,11.85906 -2.0111,0 -5.4352,-1.82481 -7.6092,-4.05513 z m 46.0238,0.69802 c -9.5101,-6.00266 -11.6631,-10.73057 -11.6631,-25.61138 0,-11.40551 0.7336,-14.6741 4.4632,-19.88462 7.9265,-11.0739 18.9502,-13.5814 27.2675,-6.2024 11.8331,10.49823 0.4883,38.83501 -15.5479,38.83501 -2.17,0 -3.9454,1.11788 -3.9454,2.48419 0,3.11798 12.9873,6.41818 17.9496,4.56115 5.7134,-2.13817 15.5637,-1.8752 17.0685,0.45565 0.766,1.18646 -0.5003,3.53005 -2.9215,5.40683 -5.9438,4.60745 -25.3427,4.58106 -32.6709,-0.0445 z m 12.705,-27.68263 c 3.6411,-4.97641 3.8878,-16.88454 0.3765,-18.17441 -4.8722,-1.78978 -11.5151,3.15029 -13.2591,9.86028 -0.9313,3.58309 -1.1697,7.82083 -0.5298,9.4172 1.7087,4.26246 9.9846,3.58183 13.4124,-1.10307 z M 470.55963,434.02816 c 0,-2.40303 1.25513,-3.60455 3.76537,-3.60455 2.51024,0 3.76537,1.20152 3.76537,3.60455 0,2.40303 -1.25513,3.60455 -3.76537,3.60455 -2.51024,0 -3.76537,-1.20152 -3.76537,-3.60455 z m 151.3054,-57.82454 c 3.73426,-17.87392 25.66256,-27.24878 40.74756,-17.42052 7.4775,4.87181 12.552,11.30325 14.2201,18.02277 1.1888,4.7887 0.9711,4.95626 -6.4416,4.95626 -6.2717,0 -8.8864,-1.16241 -14.3243,-6.36804 l -6.6521,-6.36805 -6.6522,6.36805 c -5.4467,5.21408 -8.048,6.36804 -14.3554,6.36804 -7.6019,0 -7.68807,-0.0732 -6.54206,-5.55851 z m 48.25916,-0.72102 c 0,-4.17881 -10.1422,-14.03108 -13.6894,-13.29813 -2.7055,0.55899 -2.8295,1.28675 -0.8561,5.02103 1.7751,3.3588 9.996,9.67882 14.0748,10.82035 0.2589,0.0725 0.4707,-1.07201 0.4707,-2.54325 z m -35.1766,-1.22396 c 7.673,-3.91209 11.8165,-12.32155 6.0712,-12.32155 -3.2764,0 -12.3137,8.91496 -12.3137,12.14695 0,2.80897 1.0197,2.83748 6.2425,0.17464 z m -12.11294,-32.1466 c -1.24093,-3.96501 -2.75757,-7.18975 -3.37027,-7.1661 -0.6127,0.0236 -4.40371,0.77359 -8.42447,1.66653 -10.94148,2.42993 -16.22309,-0.1276 -16.22309,-7.85557 0,-3.42939 0.81678,-8.29177 1.81506,-10.80532 1.69347,-4.26395 1.31515,-4.71344 -5.64806,-6.71058 -4.1047,-1.17728 -7.46311,-2.98152 -7.46311,-4.00945 0,-1.02793 2.32982,-4.19689 5.17738,-7.04216 4.37032,-4.36681 5.17739,-6.7243 5.17739,-15.12346 0,-8.69972 -0.67299,-10.50438 -5.35489,-14.35957 -6.36012,-5.23711 -5.52641,-8.90383 2.40365,-10.57117 6.37232,-1.33981 6.66406,-2.29713 3.75563,-12.32371 -3.77109,-13.00049 6.19795,-19.6403 19.50885,-12.99375 5.6615,2.82698 5.13504,3.33176 9.80647,-9.40311 0.9856,-2.68671 6.5926,-3.0474 6.5926,-0.42408 0,3.31805 12.1098,8.9713 19.232,8.97815 5.0936,0.005 8.743,-1.46278 13.4274,-5.40009 3.538,-2.97375 7.2893,-5.40683 8.3361,-5.40683 2.2711,0 4.189,4.28957 4.189,9.36889 0,3.07147 0.8411,3.48475 5.1773,2.54384 14.9687,-3.24803 16.7769,-3.25461 20.1002,-0.0732 3.2908,3.15029 3.2781,8.44227 -0.048,20.03552 -0.9739,3.39419 -0.1891,4.10872 5.6678,5.16057 8.8903,1.5966 10.1343,3.94145 4.5989,8.66906 -4.9487,4.22659 -9.1383,12.10445 -9.1383,17.18299 0,4.78919 5.3513,14.20696 9.7476,17.15472 4.828,3.23725 3.3383,5.62195 -5.1962,8.3183 -4.6951,1.48333 -6.3716,2.91423 -5.6178,4.79475 5.8213,14.52206 1.6532,23.38246 -10.0825,21.43294 -13.7322,-2.28118 -13.8529,-2.25149 -15.5445,3.82267 -2.1841,7.84264 -4.7805,8.88173 -9.0894,3.63775 -8.3458,-10.15684 -23.482,-10.74181 -32.9577,-1.27374 -2.9638,2.96141 -6.0434,5.38439 -6.8436,5.38439 -0.8002,0 -2.4702,-3.2441 -3.71113,-7.20911 z m 12.90954,-7.20911 c 8.9848,-4.60993 17.4907,-4.57048 27.1067,0.1258 4.201,2.05166 8.0343,3.35107 8.5185,2.88759 1.6835,-1.61159 -1.5426,-12.94955 -4.7564,-16.71635 -7.1014,-8.32325 -20.6923,-10.53939 -29.7589,-4.85248 -5.1287,3.21692 -10.0316,12.25746 -10.0316,18.49756 0,4.51052 0.2403,4.51209 8.9217,0.0579 z m -21.92378,-4.59319 c 6.45927,-3.19754 12.98468,-12.42996 12.99498,-18.38583 0.01,-3.46221 -0.9927,-4.05513 -6.83069,-4.05513 -5.40171,0 -8.16952,1.35175 -13.17879,6.43629 -4.04635,4.10714 -6.34104,8.23778 -6.34104,11.41444 0,8.15573 3.63163,9.40392 13.35554,4.59023 z m 83.86488,0.0834 c 3.4898,-8.7059 -8.1323,-22.52441 -18.9442,-22.52441 -5.8936,0 -6.7342,0.55186 -6.7342,4.4209 0,7.19076 3.6784,12.84221 11.0061,16.90959 8.1395,4.51802 13.1755,4.92782 14.6723,1.19394 z m -85.87982,-27.96159 c 7.2557,-4.94584 10.3381,-14.226 7.4794,-22.51802 -2.74226,-7.95423 -12.5409,-15.29944 -20.40972,-15.29944 -6.89141,0 -7.20829,1.05002 -2.17565,7.20911 5.20254,6.36701 5.13375,21.93466 -0.12821,29.00878 l -3.89358,5.23448 h 6.89765 c 3.89902,0 9.2158,-1.58019 12.23009,-3.63489 z m 49.64562,0.89182 c 2.4053,-1.50868 5.8856,-5.95353 7.7339,-9.87745 3.0179,-6.40655 3.0863,-7.82456 0.6711,-13.89934 -3.1301,-7.8727 -12.9381,-14.93249 -20.7454,-14.93249 -11.6693,0 -22.2882,9.86096 -22.2882,20.6972 0,6.12435 4.5251,14.39102 9.8215,17.94235 5.3545,3.59021 19.1327,3.62894 24.8071,0.0697 z m -19.2122,-9.94309 c -7.2627,-6.47724 -4.9542,-15.37592 4.4453,-17.13619 10.6606,-1.9964 16.8897,7.82911 10.1576,16.02208 -4.7147,5.73776 -9.0479,6.06836 -14.6029,1.11411 z m 10.9411,-7.19542 c 0,-4.35795 -5.3847,-6.87207 -7.5465,-3.52349 -2.2128,3.42742 -0.1301,7.18459 3.9826,7.18459 2.3272,0 3.5639,-1.27049 3.5639,-3.6611 z m 48.5972,14.40365 c -5.2044,-6.7387 -5.6647,-22.37475 -0.8523,-28.95194 4.2125,-5.75734 3.8985,-7.02248 -1.7428,-7.02248 -16.0189,0 -26.2294,16.70606 -18.7139,30.61881 3.9241,7.26424 9.9769,10.83356 18.3715,10.83356 h 7.1682 z m -77.1069,-37.57915 c 3.8916,-2.36051 0.9164,-11.91689 -5.67432,-18.22616 -4.06986,-3.89605 -7.43768,-5.40099 -12.08652,-5.40099 -5.66313,0 -6.44458,0.56071 -6.44458,4.62418 0,7.92254 4.75071,14.50672 13.1788,18.26494 5.80207,2.58726 7.76178,2.71841 11.02662,0.73803 z m 60.6921,-1.18619 c 6.4593,-3.19754 12.9847,-12.42996 12.995,-18.38583 0.01,-3.46221 -0.9927,-4.05513 -6.8307,-4.05513 -9.2907,0 -19.5198,9.98406 -19.5198,19.05223 0,5.02803 0.7191,6.17965 3.8589,6.17965 2.1223,0 6.3958,-1.25592 9.4966,-2.79092 z m -23.5543,-7.3852 c 5.5073,-3.45434 10.7382,-14.1942 9.1891,-18.86647 -1.0184,-3.07155 -1.3665,-3.05764 -7.0907,0.28353 -8.2483,4.81453 -22.5214,4.71595 -29.7411,-0.20539 -4.7885,-3.26408 -5.6185,-3.37669 -6.6124,-0.89712 -1.8537,4.62425 0.9753,11.94674 6.7518,17.47656 4.3909,4.20336 7.0384,5.1759 14.09,5.1759 4.8905,0 10.7492,-1.29593 13.4133,-2.96701 z M 547.7497,309.98891 c 0,-5.90045 3.60869,-13.43624 9.06253,-18.92468 l 5.05761,-5.08968 -5.14382,-3.59805 c -4.15376,-2.90549 -10.859,-16.9815 -10.859,-22.79579 0,-0.42604 3.17703,-0.21053 7.06007,0.47888 31.47656,5.58859 32.80382,46.79612 1.68726,52.38431 -6.08075,1.09204 -6.86465,0.81169 -6.86465,-2.45499 z m 16.74505,-9.15124 c 6.09269,-5.44833 7.16552,-8.19672 3.94364,-10.10289 -2.43689,-1.44175 -13.15795,8.73475 -13.15795,12.48963 0,4.17627 2.63977,3.49251 9.21431,-2.38674 z m 5.84717,-22.71842 c 0,-3.04628 -7.7917,-10.12097 -13.32122,-12.09538 -4.46972,-1.59597 -4.58671,0.0541 -0.41464,5.84887 5.99964,8.33317 13.73586,11.85127 13.73586,6.24651 z m 167.55897,32.03021 c -6.7971,-2.50133 -15.0389,-10.27114 -17.0341,-16.05868 -4.0836,-11.84494 2.2478,-26.68062 13.5171,-31.67331 12.8594,-5.69714 14.8131,-5.7565 14.8131,-0.45006 0,6.77135 -5.1364,16.32937 -10.6254,19.77231 l -4.6529,2.91852 4.5763,3.44599 c 5.2102,3.92332 10.702,13.97411 10.702,19.58631 0,3.83654 -4.7456,4.86954 -11.2961,2.45892 z m -1.7002,-15.26554 c -3.2395,-2.77087 -6.7238,-5.03796 -7.743,-5.03796 -4.0265,0 -1.4947,5.33453 5.204,10.96488 6.282,5.28011 7.1323,5.55697 7.743,2.52126 0.4235,-2.10528 -1.5678,-5.33802 -5.204,-8.44818 z m 0.4839,-18.46897 c 4.1906,-3.71785 7.0029,-11.80086 4.1058,-11.80086 -2.2924,0 -14.1856,11.48924 -14.1856,13.70377 0,3.85936 4.5538,2.99966 10.0798,-1.90291 z m -101.1941,-64.54706 c -7.7924,-4.27667 -14.31609,-13.78639 -14.31609,-20.86899 0,-3.96716 0.51718,-4.19094 6.99649,-3.02732 7.2986,1.31074 17.4784,7.18218 17.4784,10.08103 0,2.92249 4.6535,1.81574 6.9102,-1.64346 2.7499,-4.21529 13.8082,-9.29291 20.2385,-9.29291 4.413,0 4.8029,0.51856 3.7268,4.95626 -4.865,20.06228 -23.8555,29.22348 -41.0343,19.79539 z m 8.2343,-5.37718 c -0.059,-3.18774 -5.7827,-9.56625 -10.7836,-12.01783 -6.0068,-2.94469 -5.6789,1.53896 0.638,8.72556 4.9685,5.65253 10.2211,7.35702 10.1456,3.29227 z m 21.5253,-3.29227 c 5.5799,-6.34802 6.1331,-8.8731 1.944,-8.8731 -2.9026,0 -14.0141,10.32144 -14.0141,13.0176 0,3.49796 7.6664,0.86559 12.0701,-4.1445 z"
       id="path316" /></g></svg>
