<?xml version="1.0" encoding="UTF-8" standalone="no"?>
<!-- Created with Inkscape (http://www.inkscape.org/) -->

<svg
   width="900"
   height="900"
   viewBox="0 0 900 900"
   version="1.1"
   id="svg5"
   xml:space="preserve"
   inkscape:version="1.2.1 (9c6d41e410, 2022-07-14)"
   sodipodi:docname="favicon.svg"
   xmlns:inkscape="http://www.inkscape.org/namespaces/inkscape"
   xmlns:sodipodi="http://sodipodi.sourceforge.net/DTD/sodipodi-0.dtd"
   xmlns="http://www.w3.org/2000/svg"
   xmlns:svg="http://www.w3.org/2000/svg"><sodipodi:namedview
     id="namedview7"
     pagecolor="#ffffff"
     bordercolor="#000000"
     borderopacity="0.25"
     inkscape:showpageshadow="2"
     inkscape:pageopacity="0.0"
     inkscape:pagecheckerboard="0"
     inkscape:deskcolor="#d1d1d1"
     inkscape:document-units="px"
     showgrid="false"
     inkscape:zoom="0.48337378"
     inkscape:cx="688.90787"
     inkscape:cy="399.27693"
     inkscape:window-width="1360"
     inkscape:window-height="705"
     inkscape:window-x="-8"
     inkscape:window-y="-8"
     inkscape:window-maximized="1"
     inkscape:current-layer="layer1" /><defs
     id="defs2" /><g
     inkscape:label="Capa 1"
     inkscape:groupmode="layer"
     id="layer1"><path
       id="path316"
       style="fill:#ef4444;fill-opacity:1;stroke-width:7.76449"
       d="m 559.56843,36.095351 c -27.10473,0 -73.72456,21.395132 -85.31582,39.163079 -9.51218,14.581076 -29.12736,19.250712 -29.12736,6.931955 0,-12.218944 -42.91011,-36.972378 -73.6747,-42.497354 -27.31115,-4.904843 -29.48963,-3.961448 -29.48963,12.760759 0,29.854114 27.49986,69.93989 60.3459,87.96673 72.41115,39.74073 152.46308,1.12663 172.96966,-83.438722 4.53593,-18.705609 2.89328,-20.886447 -15.70805,-20.886447 z M 377.55925,63.353895 c 3.01492,-0.499623 7.67398,0.642812 14.00388,3.745926 21.07942,10.333631 45.20417,37.219299 45.45286,50.655959 0.31824,17.13357 -21.81792,9.95402 -42.76077,-13.87212 C 374.2852,81.164162 368.5144,64.852848 377.55925,63.353895 Z m 158.38123,3.128448 c 17.65773,0 15.32843,10.64357 -8.19156,37.401317 -18.56229,21.11815 -50.87827,32.21431 -50.87827,17.46986 0,-11.36475 46.83492,-54.871177 59.06983,-54.871177 z M 554.44765,188.0304 c -4.41227,0 -20.22421,10.25337 -35.13727,22.7882 -19.74548,16.59639 -35.12972,22.78458 -56.60004,22.7635 -30.02105,-0.0295 -81.06766,-23.85977 -81.06766,-37.84588 0,-11.05755 -23.63102,-9.53823 -27.78549,1.78651 -19.69064,53.67932 -17.47242,51.55678 -41.33653,39.64061 -56.10722,-28.0161 -98.13248,-0.0337 -82.23674,54.76414 12.25933,42.26344 11.02863,46.30101 -15.83154,51.94852 -33.42629,7.02794 -36.93503,22.48867 -10.12629,44.56375 19.73496,16.25025 22.56593,23.85637 22.56593,60.52707 0,35.40362 -3.40353,45.33938 -21.82494,63.74601 -12.00292,11.99327 -21.81678,25.35435 -21.81678,29.68724 0,4.33288 14.15534,11.93129 31.45732,16.89355 29.35085,8.41826 30.94726,10.31461 23.80902,28.28767 -4.20791,10.59501 -7.65641,31.09645 -7.65641,45.55171 0,32.57444 22.26113,43.35458 68.38103,33.11205 16.94815,-3.76389 32.93337,-6.93129 35.516,-7.03077 2.58262,-0.0999 8.9709,13.49276 14.20146,30.20591 5.23072,16.71298 12.27748,30.387 15.65046,30.387 3.3728,0 16.35473,-10.20659 28.84746,-22.6894 39.94151,-39.90925 103.74023,-37.44477 138.91909,5.36776 18.16253,22.10403 29.10879,17.72023 38.31512,-15.33758 7.13036,-25.60355 7.63285,-25.72701 65.51607,-16.11147 49.46767,8.21753 67.04328,-29.13354 42.50558,-90.34598 -3.17738,-7.92668 3.88692,-13.95892 23.67735,-20.21139 35.9741,-11.36537 42.24983,-21.40959 21.89904,-35.05494 -18.53093,-12.42528 -41.08129,-52.12929 -41.08129,-72.31631 0,-21.40686 17.65317,-54.60776 38.51271,-72.42334 23.33242,-19.92763 18.09399,-29.81533 -19.37987,-36.5451 -24.68759,-4.4337 -27.99653,-7.44383 -23.89139,-21.75087 14.02004,-48.86721 14.06843,-71.1724 0.19769,-84.45137 -14.00823,-13.40998 -21.62793,-13.3867 -84.72304,0.30476 -18.27776,3.96608 -21.825,2.22771 -21.825,-10.71902 0,-21.40997 -8.07791,-39.49241 -17.65097,-39.49241 z m -177.66227,41.66588 c 3.92136,0.53186 9.84754,4.09489 19.93968,10.9742 30.43197,20.74422 90.59202,21.15829 125.35975,0.86444 24.12823,-14.08355 25.60034,-14.1408 29.89305,-1.19373 6.52971,19.69419 -15.52089,64.95935 -38.73502,79.51994 -11.22945,7.04386 -35.92817,12.50552 -56.54239,12.50552 -29.72345,0 -40.88271,-4.09907 -59.39087,-21.81672 -24.34886,-23.30907 -36.27405,-54.17457 -28.46059,-73.66652 2.09473,-5.22587 4.01503,-7.71917 7.93639,-7.18713 z m -94.9481,26.70694 c 19.59544,0 33.78919,6.3412 50.94412,22.7635 27.78093,26.59458 40.31981,66.87794 23.91609,76.82786 -13.76164,8.34745 -22.01712,7.79371 -46.47375,-3.112 -35.52558,-15.84133 -55.55449,-43.59788 -55.55449,-76.99247 0,-17.12817 3.29706,-19.48689 27.16803,-19.48689 z m 356.67479,0 c 24.60809,0 28.83202,2.4974 28.78987,17.09117 -0.0435,25.10476 -27.54556,64.01656 -54.77236,77.49469 -13.07036,6.4701 -31.08995,11.76456 -40.03577,11.76456 -13.2346,0 -16.25965,-4.85443 -16.25965,-26.04838 0,-38.22359 43.11631,-80.30204 82.27791,-80.30204 z m 232.19596,78.75432 c -8.83434,0.2685 -24.44307,6.33534 -51.54509,18.34251 -47.50172,21.04482 -74.19177,83.57399 -56.97875,133.50195 8.41008,24.39541 43.14695,57.15427 71.79763,67.69777 27.61123,10.16114 47.61814,5.80646 47.61814,-10.36499 0,-23.65632 -23.15357,-66.02882 -45.11538,-82.56606 l -19.28929,-14.52258 19.61862,-12.2997 c 23.13683,-14.51236 44.78605,-54.80599 44.78605,-83.34814 0,-11.18374 -2.05759,-16.70918 -10.89193,-16.44076 z m -843.830207,5.5324 c -1.511555,0.12054 -2.346326,0.39917 -2.346326,0.84796 0,24.50799 28.265378,83.84548 45.773968,96.09242 l 21.676787,15.16471 -21.31454,21.45448 c -22.98863,23.13464 -38.199872,54.89577 -38.199872,79.76693 0,13.76959 3.306876,14.95168 28.938028,10.34856 131.160742,-23.5551 125.565112,-197.24523 -7.113075,-220.80185 -8.183647,-1.453 -15.624412,-2.40857 -21.01813,-2.77445 -2.696942,-0.18294 -4.885284,-0.21961 -6.39684,-0.0986 z m 221.089997,22.0637 c 33.16815,0 74.473,30.96704 86.03206,64.4952 12.04971,34.95201 -0.9476,74.06784 -31.53136,94.91518 -12.70571,8.66089 -35.11017,15.32112 -51.54516,15.32112 h -29.07801 l 16.4161,-22.06373 c 22.17982,-29.81837 22.46447,-95.44295 0.53512,-122.28073 -21.21339,-25.96156 -19.87696,-30.38704 9.17125,-30.38704 z m 211.75406,0 c 32.90883,0 74.24596,29.76281 87.43983,62.94748 10.18045,25.60601 9.89693,31.57964 -2.82382,58.58409 -7.79088,16.53995 -22.46292,35.28184 -32.60164,41.64117 -23.91833,15.00276 -81.99386,14.83664 -104.56388,-0.29633 -22.32499,-14.96942 -41.40238,-49.81917 -41.40238,-75.6341 0,-45.6763 44.76414,-87.24227 93.95189,-87.24227 z m 211.05427,0 c 23.77881,0 25.10819,5.33681 7.35183,29.6049 -20.28486,27.72373 -18.34774,93.62926 3.58947,122.03378 l 17.8321,23.09282 h -30.21413 c -35.38439,0 -60.89635,-15.04722 -77.43706,-45.66697 -31.67884,-58.64412 11.35593,-129.06453 78.87779,-129.06453 z m 175.39013,0 c 12.21157,0 0.35872,34.071 -17.30519,49.74215 -23.29298,20.66511 -42.48914,24.29474 -42.48914,8.02693 0,-9.3346 50.13151,-57.76908 59.79433,-57.76908 z m -785.311964,3.52361 c 2.420772,-0.0876 5.984303,0.73864 10.69428,2.42044 23.307803,8.32245 56.147254,38.14474 56.147254,50.98529 0,23.62495 -32.611537,8.7972 -57.900797,-26.32826 -13.189446,-18.31942 -16.203452,-26.8144 -8.940737,-27.07747 z m 396.834074,44.49791 c -2.6539,0.15048 -5.3913,0.47855 -8.19984,1.00439 -39.62016,7.41982 -49.35089,44.93157 -18.73768,72.23399 23.41521,20.88279 41.68295,19.48466 61.55616,-4.70091 24.8296,-30.21767 7.82844,-65.70142 -26.91282,-68.46336 -2.48151,-0.19727 -5.05196,-0.22467 -7.70582,-0.0741 z m -2.52745,21.63561 c 1.30164,-0.14584 2.63704,-0.11676 3.96815,0.0741 8.8743,1.27323 17.74156,9.71838 17.74156,21.1993 0,10.07662 -5.21525,15.42811 -15.02476,15.42811 -17.33552,0 -26.11383,-15.83287 -16.78653,-30.27998 2.56285,-3.96979 6.19658,-5.9843 10.10158,-6.42154 z m 339.01563,36.70151 c 4.29609,0 18.98794,9.56083 32.64278,21.24048 15.32716,13.10965 23.71713,26.73245 21.93201,35.60655 -2.5742,12.79599 -6.1551,11.62788 -32.63456,-10.62844 -28.23591,-23.73283 -38.9124,-46.21859 -21.94023,-46.21859 z m -676.82104,3.16137 c 0.89382,0.0169 1.67143,0.20444 2.3134,0.58457 13.58073,8.03462 9.0596,19.62248 -16.62189,42.58788 -27.712553,24.78181 -38.833791,27.66405 -38.833791,10.06041 0,-13.84899 34.597937,-48.42441 50.129111,-52.78007 1.10935,-0.31107 2.11938,-0.4685 3.01317,-0.45279 z m 219.59167,72.81028 c 24.60789,0 28.83197,2.4974 28.78983,17.09117 -0.0434,25.10477 -27.54552,64.02479 -54.77237,77.50293 -40.98764,20.2903 -56.29541,15.02236 -56.29541,-19.35516 0,-13.39012 9.67569,-30.8 26.73168,-48.11207 21.11488,-21.43214 32.77721,-27.12687 55.54627,-27.12687 z m 247.66518,0 c 45.57369,0 94.56741,58.24329 79.85752,94.93988 -6.30924,15.73873 -27.53519,14.0138 -61.84429,-5.03021 -30.88726,-17.14465 -46.39145,-40.96881 -46.39145,-71.279 0,-16.30845 3.53592,-18.63067 28.37822,-18.63067 z m -127.96134,22.42596 c 28.74477,-0.0337 58.13601,11.83507 76.84433,33.76245 13.54668,15.87749 27.14292,63.67085 20.04669,70.46395 -2.04097,1.95366 -18.19506,-3.52008 -35.90295,-12.16798 -40.53278,-19.79556 -76.38987,-19.96656 -114.26202,-0.53515 -36.59331,18.77512 -37.6071,18.7733 -37.6071,-0.23857 0,-26.30285 20.66503,-64.41252 42.28331,-77.97219 14.33124,-8.98919 31.35103,-13.29308 48.59774,-13.31235 z m 8.52912,175.58769 c -53.55911,-2.83162 -108.49948,33.51919 -120.30488,90.02491 -4.83043,23.12145 -4.47161,23.43038 27.57143,23.43038 26.58652,0 37.55189,-4.86053 60.51055,-26.83871 l 28.04067,-26.84694 28.0407,26.84694 c 22.92145,21.94255 33.94278,26.83871 60.37882,26.83871 31.24571,0 32.16255,-0.70132 27.15156,-20.88645 -7.0313,-28.32367 -28.41561,-55.4362 -59.93428,-75.97166 -15.89625,-10.35676 -33.60147,-15.65327 -51.45457,-16.59718 z m -39.56651,29.89305 c 24.21735,0 6.74721,35.44216 -25.59549,51.93207 -22.01494,11.22429 -26.31182,11.10753 -26.31182,-0.73272 0,-13.62318 38.09681,-51.19935 51.90731,-51.19935 z m 64.98096,1.03732 c 14.95185,-3.08951 57.70321,38.44249 57.70321,56.05668 0,6.2015 -0.89278,11.02462 -1.98408,10.71902 -17.19278,-4.81173 -51.85101,-31.45162 -59.33332,-45.60932 -8.31803,-15.74058 -7.78991,-18.81015 3.61419,-21.16638 z" /></g></svg>
