<?xml version="1.0" encoding="UTF-8" standalone="no"?>
<!-- Created with Inkscape (http://www.inkscape.org/) -->

<svg
   width="1366"
   height="768"
   viewBox="0 0 1366 768"
   version="1.1"
   id="svg5"
   xml:space="preserve"
   inkscape:version="1.2.1 (9c6d41e410, 2022-07-14)"
   sodipodi:docname="LogoTulipannV2.svg"
   xmlns:inkscape="http://www.inkscape.org/namespaces/inkscape"
   xmlns:sodipodi="http://sodipodi.sourceforge.net/DTD/sodipodi-0.dtd"
   xmlns="http://www.w3.org/2000/svg"
   xmlns:svg="http://www.w3.org/2000/svg"><sodipodi:namedview
     id="namedview7"
     pagecolor="#ffffff"
     bordercolor="#000000"
     borderopacity="0.25"
     inkscape:showpageshadow="2"
     inkscape:pageopacity="0.0"
     inkscape:pagecheckerboard="0"
     inkscape:deskcolor="#d1d1d1"
     inkscape:document-units="px"
     showgrid="false"
     inkscape:zoom="0.48337378"
     inkscape:cx="676.49511"
     inkscape:cy="399.27693"
     inkscape:window-width="1360"
     inkscape:window-height="705"
     inkscape:window-x="-8"
     inkscape:window-y="-8"
     inkscape:window-maximized="1"
     inkscape:current-layer="layer1" /><defs
     id="defs2" /><g
     inkscape:label="Capa 1"
     inkscape:groupmode="layer"
     id="layer1"><path
       id="path316"
       style="fill:#ef4444;fill-opacity:1;stroke-width:1.84204"
       d="m 955.7566,299.83599 c -2.9814,-0.21993 -5.536,4.99419 -6.3125,13.34961 l -0.97071,10.44727 -10.2402,0.90039 c -9.7602,0.85898 -10.0844,1.05021 -6.9258,4.05664 1.8226,1.7347 4.8216,3.15234 6.6641,3.15234 1.8425,0 5.9384,0.86435 9.1016,1.91992 6.65371,2.2205 9.24531,7.44913 10.38861,20.95703 0.4357,5.14771 2.2126,11.43427 3.9473,13.96875 3.5313,5.15925 8.2619,6.03463 9.9434,1.83985 0.6104,-1.52265 -0.6256,-7.40445 -2.7461,-13.06836 -3.6636,-9.78551 -4.8328,-15.02767 -4.3477,-19.50781 0.1196,-1.10491 5.399,-2.45415 11.7773,-3.00782 18.5194,-1.60755 19.5265,-9.54138 1.1075,-8.72461 -12.4532,0.55221 -16.0775,-2.68442 -17.7012,-15.80859 -0.6336,-5.12116 -1.7065,-9.63976 -2.3848,-10.04101 -0.4393,-0.25996 -0.8748,-0.40218 -1.3008,-0.4336 z m -50.65426,1.41602 c -2.52364,-0.18187 -4.73463,0.34476 -5.58008,1.65429 -0.6399,0.99125 -2.70826,1.80274 -4.59766,1.80274 -4.70089,0 -17.05273,13.46522 -17.05273,18.58984 0,2.28837 1.73186,5.93922 3.84765,8.11328 3.9923,4.10216 15.26411,9.3418 20.09571,9.3418 1.5258,0 5.28286,1.70968 8.34765,3.79883 7.6166,5.19184 6.49925,10.25121 -3.31054,14.99219 -9.82839,4.74994 -13.91797,8.03226 -13.91797,11.16796 0,7.14778 22.49221,-1.6762 30,-11.76953 8.29942,-11.1576 3.65692,-17.28921 -17.76367,-23.46484 -13.58859,-3.91765 -16.00196,-5.6856 -16.00196,-11.7168 0,-6.3129 2.89991,-8.59235 16.4961,-12.9707 11.15609,-3.59261 11.31178,-3.75044 6.90039,-6.94531 -2.1014,-1.5219 -4.93926,-2.41189 -7.46289,-2.59375 z m -264.44922,3.45703 c -2.51024,0 -3.76367,1.20049 -3.76367,3.60351 0,2.40303 1.25343,3.60547 3.76367,3.60547 2.51024,0 3.76562,-1.20244 3.76562,-3.60547 0,-2.40302 -1.25538,-3.60351 -3.76562,-3.60351 z m -91.39453,0.0644 c -2.15169,0.098 -4.97517,0.30453 -8.66211,0.58984 -8.64974,0.66934 -25.25911,1.73103 -36.9082,2.35938 -14.95666,0.80677 -21.17969,1.79877 -21.17969,3.37695 0,3.38099 4.60351,4.42188 19.54492,4.42188 8.05944,0 14.50976,0.88143 15.84961,2.16406 1.24257,1.1895 2.28812,5.85309 2.32422,10.36328 0.0981,12.24416 4.8962,35.76564 8.31445,40.75977 h 0.002 c 1.65159,2.41298 4.67754,4.38672 6.72461,4.38672 4.95559,0 4.93973,-7.80212 -0.0449,-23.42969 -2.05514,-6.44313 -3.743,-16.74608 -3.75,-22.89649 l -0.0156,-11.18359 7.06054,-1.04101 c 12.0726,-1.77899 16.41246,-3.57709 17.1211,-7.09961 0.48081,-2.39001 0.0742,-3.06539 -6.38086,-2.77149 z m 69.72461,2.6211 c -0.86342,0.0118 -1.786,0.64649 -2.79688,1.8125 -1.91885,2.21333 -1.78612,6.65936 0.69141,23.14843 1.6867,11.22557 3.0664,22.94193 3.0664,26.03516 0,3.09325 0.98385,7.69007 2.18555,10.21484 2.7779,5.83644 9.10928,6.20822 9.11328,0.53516 10e-4,-2.23032 -0.87719,-10.94937 -1.95312,-19.375 -3.93043,-30.77866 -6.56517,-42.42215 -10.30664,-42.37109 z m 113.83593,6.32617 c -4.18623,0 -14.20787,5.91283 -18.21093,10.74609 -10.52473,12.70749 -13.11193,32.31329 -5.32618,40.35547 6.40646,6.61743 19.76926,6.70689 29.77344,0.19922 l 7.02539,-4.57031 3.17383,6.37304 c 1.74578,3.5046 4.19857,6.3711 5.44922,6.3711 2.52633,0 5.07671,-4.949 3.67188,-7.125 -0.49468,-0.76622 -1.87406,-9.41261 -3.06446,-19.21289 -1.19038,-9.80027 -3.34291,-20.03498 -4.78515,-22.74415 -2.87588,-5.40217 -11.37977,-10.39257 -17.70704,-10.39257 z m 384.04107,0.21875 c -5.9569,-0.0936 -12.1202,3.48116 -17.0743,10.40234 -3.7296,5.21052 -4.4628,8.47927 -4.4628,19.88477 0,14.88079 2.152,19.60867 11.6621,25.61132 7.3282,4.62556 26.728,4.65237 32.6718,0.0449 2.4212,-1.87678 3.686,-4.21979 2.92,-5.40625 -1.5048,-2.33085 -11.355,-2.5952 -17.0684,-0.45703 -4.9623,1.85702 -17.9492,-1.44257 -17.9492,-4.56055 0,-1.36631 1.7753,-2.48438 3.9453,-2.48438 16.0362,0 27.3819,-28.33576 15.5488,-38.83398 -3.119,-2.76712 -6.6192,-4.14501 -10.1933,-4.20117 z m -516.52544,1.5332 c -2.96378,-0.21919 -3.92383,4.84712 -3.92383,17.32227 0,19.75879 -4.13456,28.68554 -13.28515,28.68554 -7.98262,0 -13.07227,-10.28903 -13.07227,-26.42383 0,-13.29363 -1.76933,-16.80776 -5.80273,-11.52734 -5.84327,7.64986 -1.62,33.07314 7.19335,43.30859 10.63633,12.35261 25.44006,6.44416 32.32618,-12.90234 3.89318,-10.93789 4.0378,-33.5388 0.23437,-36.56055 -1.47193,-1.16942 -2.68199,-1.82928 -3.66992,-1.90234 z m 75.95898,5.45117 c -5.14807,0.21339 -9.92678,1.30377 -11.68359,3.16211 -6.92656,7.32688 -7.26971,12.33334 -2.17187,31.65625 6.35475,24.08713 9.67528,33.66226 14.07617,40.58985 2.25067,3.54288 5.14477,5.69921 7.64843,5.69921 3.49631,0 3.87511,-0.73425 2.86719,-5.55859 -0.63872,-3.05716 -2.91373,-7.91596 -5.05664,-10.79688 -2.14291,-2.8809 -4.36064,-7.97505 -4.92773,-11.32031 -0.92063,-5.4309 -0.23672,-6.69348 6.39453,-11.79492 17.47647,-13.44465 20.71979,-32.41655 6.75781,-39.53516 -3.23871,-1.65127 -8.75622,-2.31495 -13.9043,-2.10156 z m 59.29493,2.49024 c 1.69303,0.0707 3.155,0.73223 4.21289,2.11718 5.46631,7.15635 1.93273,27.23753 -5.625,31.9668 -13.84823,8.66557 -22.14905,3.26674 -19.45118,-12.64844 1.85878,-10.96501 13.52682,-21.74176 20.86329,-21.43554 z m 382.58203,0.20117 c 0.6513,0.0231 1.2875,0.14151 1.8965,0.36523 3.5113,1.28987 3.2641,13.19938 -0.377,18.17578 -3.4278,4.6849 -11.7034,5.36402 -13.4121,1.10157 -0.6399,-1.59637 -0.402,-5.83293 0.5293,-9.41602 1.526,-5.87123 6.804,-10.38828 11.3633,-10.22656 z m -473.58594,2.9707 c -0.90108,-0.24845 -1.91991,0.68361 -3.32227,2.45703 -3.59082,4.54095 -2.04332,30.86214 2.28516,38.875 3.05445,5.65439 9.16065,7.07694 10.97266,2.55664 1.1284,-2.81501 -0.31235,-11.54901 -5.15821,-31.25586 -2.09709,-8.52834 -3.27554,-12.21873 -4.77734,-12.63281 z m 434.30474,0.83203 c -5.9635,-0.12622 -11.4125,4.46771 -17.6543,14.48242 -1.8717,3.00295 -2.4897,2.5697 -6.1563,-4.31054 -2.2453,-4.21312 -5.4381,-7.64844 -7.1074,-7.64844 -6.9881,0 2.4028,28.33747 12.9902,39.19922 2.174,2.23032 5.5983,4.05469 7.6094,4.05469 3.3842,0 3.5579,-0.88359 2.3301,-11.85938 -0.8724,-7.7979 -0.566,-13.61694 0.8945,-16.99219 2.3662,-5.46872 6.6782,-8.15854 8.5156,-5.3125 0.612,0.94796 3.1815,1.72266 5.709,1.72266 7.0109,0 6.357,-8.0462 -0.9472,-11.66211 -2.1508,-1.06469 -4.1958,-1.63175 -6.1836,-1.67383 z m -56.3926,0.26563 c -1.517,0.0892 -3.1085,0.33218 -4.7637,0.73437 -13.9475,3.38905 -23.1348,14.20594 -23.1348,27.23828 0,6.82581 0.9922,9.64138 4.6211,13.11524 12.9082,12.35696 41.7646,-3.62208 41.2383,-22.83594 -0.3287,-12.00073 -7.3418,-18.87629 -17.9609,-18.25195 z m -342.92777,2.33594 c 3.39266,0.10605 6.73677,0.99351 8.13086,2.60156 2.87437,3.31547 1.3552,9.62883 -3.83984,15.95117 -3.68484,4.48444 -10.82672,6.35675 -13.71094,3.5957 -2.1569,-2.06476 -1.37002,-17.7919 1.00391,-20.06445 1.58258,-1.51499 5.02336,-2.19004 8.41601,-2.08398 z m 118.26563,3.52539 c -6.86419,0 -17.86133,7.40437 -17.86133,12.02539 0,4.16707 -4.62932,1.72003 -5.32422,-2.81446 -0.71743,-4.68144 -5.69011,-7.15705 -7.80273,-3.88476 -2.79396,4.32763 4.06821,25.39546 10.17578,31.24218 1.771,1.69538 3.92298,3.08204 4.7832,3.08204 1.92937,0 5.69608,-9.99371 5.70508,-15.13868 0.009,-5.06147 6.80475,-15.5 10.08984,-15.5 4.3125,0 6.71396,4.24512 9.28516,16.40625 1.9896,9.41024 3.11075,11.5293 6.09375,11.5293 4.7948,0 5.60829,-4.76251 2.83789,-16.61328 -2.9773,-12.73573 -9.69753,-20.33398 -17.98242,-20.33398 z m 55.38086,0 c -5.9506,0 -8.10855,1.17768 -13.77734,7.51757 l -6.72266,7.51758 -2.08008,-5.71484 c -2.1979,-6.0357 -6.22492,-7.54627 -8.04102,-3.01563 -1.32269,3.29956 5.08803,23.70319 9.20313,29.29102 4.0442,5.49153 8.10664,5.10455 9.49023,-0.90235 4.7794,-20.75093 7.5146,-25.68164 14.24219,-25.68164 2.3783,0 7.22393,11.19666 8.89063,20.54297 0.8716,4.88752 2.40399,7.56177 4.55859,7.95899 2.7549,0.5079 3.24414,-0.90113 3.24414,-9.32813 0,-17.85554 -6.96572,-28.18554 -19.00781,-28.18554 z m 171.23248,3.29101 c 1.4824,-0.18445 2.7099,0.005 3.5195,0.64844 1.3213,1.04972 2.4023,4.72866 2.4023,8.17578 0,4.72474 -1.5768,7.77713 -6.4023,12.39648 -13.749,13.16177 -27.7374,2.64097 -15.3008,-11.50781 4.5959,-5.22871 11.3339,-9.15955 15.7813,-9.71289 z m -24.2012,48.82227 c -13.979,0.24307 -27.1108,0.46123 -29.1817,0.48633 -3.5231,0.0427 -40.35471,1.99482 -79.07224,4.18945 -24.09437,1.36575 -49.6062,3.90959 -72.48437,7.22851 -10.87249,1.57727 -26.96995,3.60166 -35.77149,4.49805 -30.16132,3.07182 -66.09797,7.63665 -115.78515,14.70703 -8.2838,1.17876 -26.07397,2.19677 -39.53516,2.26367 -19.75868,0.0981 -26.19379,-0.53179 -33.39648,-3.26953 -7.27633,-2.76573 -9.45194,-2.96968 -11.79102,-1.11133 -2.23247,1.77364 -2.37792,2.84254 -0.6582,4.82618 4.32902,4.99336 13.73975,10.35523 22.19726,12.64648 5.68532,1.54021 14.63139,1.99843 26.47266,1.35742 29.25826,-1.58388 48.50125,-3.81023 99.78125,-11.54492 12.94345,-1.9523 37.51231,-5.60562 54.59766,-8.11914 17.08535,-2.51353 35.7758,-5.38243 41.5332,-6.375 5.75749,-0.99255 13.90251,-1.80469 18.09961,-1.80469 4.19709,0 12.19389,-0.87435 17.77148,-1.94336 11.86089,-2.27325 47.05053,-5.19214 74.89258,-6.21093 10.7624,-0.39382 27.18441,-1.5306 36.49221,-2.52539 10.9009,-1.16501 18.1294,-1.18975 20.3144,-0.0703 1.8657,0.95584 7.0049,1.73828 11.42,1.73828 10.3699,0 39.2871,-3.99522 39.2871,-5.42773 0,-3.28969 -21.6847,-5.94766 -45.1836,-5.53906 z" /><path
       id="path316-6"
       style="fill:#ef4444;fill-opacity:1;stroke-width:1.84204"
       d="m 391.40467,260.67957 c -6.43026,0 -17.48838,5.0777 -20.23828,9.29297 -2.2567,3.45919 -6.91015,4.56506 -6.91015,1.64258 0,-2.89884 -10.17996,-8.76934 -17.47852,-10.08008 -6.47927,-1.16361 -6.99609,-0.9398 -6.99609,3.02735 0,7.08257 6.52404,16.59249 14.3164,20.86914 17.17876,9.42805 36.16821,0.26532 41.03321,-19.79688 1.0761,-4.43768 0.68643,-4.95508 -3.72657,-4.95508 z m -43.17968,6.4668 c 0.71526,-0.11853 1.82255,0.1525 3.32421,0.88867 5.0009,2.45158 10.72421,8.83181 10.78321,12.01953 0.0755,4.06474 -5.17799,2.35954 -10.14649,-3.29296 -4.73764,-5.38993 -6.10672,-9.25963 -3.96093,-9.61524 z m 37.57617,0.74219 c 4.18906,0 3.6365,2.52505 -1.94336,8.87305 -4.4037,5.01007 -12.07031,7.64247 -12.07031,4.14453 0,-2.69615 11.11107,-13.01758 14.01367,-13.01758 z m 4.38867,28.83594 c -1.0468,0 -4.79794,2.43251 -8.33594,5.40625 -4.68436,3.93729 -8.33218,5.40539 -13.42578,5.40039 -7.12216,-0.007 -19.23242,-5.65853 -19.23242,-8.97657 0,-2.6233 -5.60815,-2.26287 -6.59375,0.42383 -4.67143,12.73482 -4.14518,12.22931 -9.80664,9.40235 -13.31086,-6.64653 -23.2789,-0.006 -19.50781,12.99414 2.90839,10.02654 2.61642,10.98441 -3.75586,12.32422 -7.93006,1.66733 -8.76438,5.33323 -2.4043,10.57031 4.6819,3.85519 5.35547,5.6597 5.35547,14.35938 0,8.39912 -0.80742,10.75627 -5.17774,15.12304 -2.84752,2.84527 -5.17773,6.01504 -5.17773,7.04297 0,1.02793 3.36018,2.83249 7.46484,4.00977 6.96321,1.99714 7.33996,2.44699 5.64649,6.71094 -0.99828,2.51351 -1.81445,7.37533 -1.81446,10.80468 0,7.72797 5.28122,10.2854 16.22266,7.85547 4.02076,-0.89294 7.81308,-1.64241 8.42578,-1.66601 0.6127,-0.0237 2.12821,3.20104 3.36914,7.16601 1.24093,3.96501 2.91074,7.20899 3.71094,7.20899 0.8002,0 3.87995,-2.42336 6.84375,-5.38477 9.47566,-9.46803 24.61319,-8.88336 32.95899,1.27344 4.30886,5.24394 6.90379,4.20588 9.08789,-3.63672 1.69156,-6.07412 1.81276,-6.1054 15.54492,-3.82422 11.73566,1.94952 15.90329,-6.90962 10.08203,-21.43164 -0.7538,-1.88052 0.92404,-3.31159 5.61914,-4.79492 8.53446,-2.69635 10.02331,-5.08111 5.19531,-8.31836 -4.39626,-2.94776 -9.74805,-12.36511 -9.74805,-17.1543 0,-5.0785 4.18998,-12.957 9.13868,-17.18359 5.53536,-4.7276 4.2926,-7.07333 -4.59766,-8.66993 -5.85686,-1.05184 -6.64187,-1.76598 -5.66797,-5.16015 3.3261,-11.59321 3.33758,-16.88488 0.0469,-20.03516 -3.3233,-3.1814 -5.13099,-3.1738 -20.09961,0.0742 -4.3362,0.94091 -5.17774,0.52654 -5.17774,-2.54492 0,-5.0793 -1.91835,-9.36914 -4.18945,-9.36914 z m -42.14648,9.88672 c 0.93026,0.12621 2.33426,0.96953 4.72851,2.60156 7.21966,4.92132 21.49393,5.01959 29.74219,0.20508 5.72416,-3.34116 6.07144,-3.35474 7.08984,-0.28321 1.5491,4.67225 -3.6802,15.41286 -9.1875,18.86719 -2.66406,1.67107 -8.52356,2.9668 -13.41406,2.9668 -7.05156,0 -9.69898,-0.97244 -14.08984,-5.17578 -5.7765,-5.5298 -8.60566,-12.85233 -6.75196,-17.47657 0.49695,-1.23978 0.95252,-1.83129 1.88282,-1.70507 z M 325.516,312.9452 c 4.64884,0 8.01807,1.50436 12.08789,5.40039 6.59072,6.30925 9.56543,15.86606 5.67383,18.22656 -3.26484,1.98038 -5.22531,1.84897 -11.02734,-0.73828 -8.42805,-3.7582 -13.17774,-10.34116 -13.17774,-18.26367 0,-4.06345 0.78027,-4.625 6.44336,-4.625 z m 84.61719,0 c 5.83796,0 6.84203,0.59249 6.83203,4.05469 -0.0103,5.95584 -6.53683,15.18919 -12.99609,18.38672 -3.1008,1.53499 -7.3738,2.79101 -9.4961,2.79101 -3.13976,0 -3.85937,-1.15168 -3.85937,-6.17969 0,-9.06813 10.22887,-19.05273 19.51953,-19.05273 z m 55.08789,18.68359 c -2.09585,0.0637 -5.80081,1.503 -12.23047,4.35157 -11.26926,4.99267 -17.59922,19.82893 -13.51562,31.67383 1.99516,5.7875 10.23614,13.5573 17.0332,16.05859 6.55046,2.41062 11.29687,1.37752 11.29687,-2.45898 0,-5.6122 -5.49296,-15.66262 -10.70312,-19.58594 l -4.57617,-3.44726 4.65234,-2.91797 c 5.489,-3.44294 10.62695,-13.00017 10.62695,-19.77149 0,-2.65321 -0.48813,-3.96602 -2.58398,-3.90235 z m -200.18945,1.3125 c -0.3586,0.0291 -0.55664,0.0966 -0.55664,0.20313 0,5.81426 6.70565,19.88947 10.85937,22.79492 l 5.14258,3.59766 -5.05664,5.08984 c -5.45384,5.48844 -9.0625,13.02534 -9.0625,18.92579 0,3.26664 0.78257,3.54711 6.86328,2.45507 31.11644,-5.58815 29.78894,-46.7962 -1.6875,-52.38477 -1.94152,-0.3447 -3.70474,-0.5714 -4.98438,-0.6582 -0.63979,-0.0434 -1.15897,-0.0526 -1.51757,-0.0234 z m 52.45117,5.23633 c 7.86878,0 17.6679,7.34464 20.41016,15.29883 2.85866,8.29202 -0.22481,17.57178 -7.48047,22.51758 -3.01429,2.0547 -8.33149,3.63477 -12.23047,3.63477 h -6.89649 l 3.89258,-5.23438 c 5.26196,-7.07408 5.33141,-22.64084 0.12891,-29.00781 -5.03264,-6.15907 -4.71559,-7.20899 2.17578,-7.20899 z m 50.23437,0 c 7.8073,0 17.616,7.05895 20.7461,14.93165 2.4152,6.07474 2.34794,7.49384 -0.66992,13.90039 -1.8483,3.92388 -5.32908,8.36827 -7.73438,9.87695 -5.67436,3.55924 -19.45218,3.51983 -24.80664,-0.0703 -5.29636,-3.55133 -9.82227,-11.81706 -9.82227,-17.94141 0,-10.8362 10.61789,-20.69727 22.28711,-20.69727 z m 50.07227,0 c 5.64126,0 5.95465,1.26417 1.74219,7.02149 -4.8124,6.57715 -4.35085,22.21443 0.85351,28.95313 l 4.23047,5.47656 h -7.16797 c -8.39456,0 -14.44703,-3.56783 -18.37109,-10.83203 -7.51546,-13.91271 2.69407,-30.61915 18.71289,-30.61915 z m 41.60742,0 c 2.8971,0 0.0851,8.08294 -4.10547,11.80079 -5.52596,4.90253 -10.08008,5.7617 -10.08008,1.90234 0,-2.21453 11.89315,-13.70313 14.18555,-13.70313 z m -186.30664,0.83594 c 0.57433,-0.0208 1.41968,0.17523 2.53711,0.57422 5.52948,1.9744 13.32227,9.04751 13.32227,12.09375 0,5.60476 -7.73673,2.08704 -13.73633,-6.24609 -3.12905,-4.34607 -3.84605,-6.35947 -2.12305,-6.42188 z m 94.14648,10.55469 c -0.62958,0.0357 -1.27902,0.11353 -1.94531,0.23828 -9.39946,1.76027 -11.70797,10.65952 -4.44531,17.13672 5.55496,4.95425 9.88882,4.62444 14.60352,-1.11328 5.89055,-7.16881 1.85721,-15.5889 -6.38477,-16.24414 -0.58871,-0.0468 -1.19852,-0.0533 -1.82813,-0.0176 z m -0.5996,5.13281 c 0.3088,-0.0346 0.6256,-0.0277 0.9414,0.0176 2.10533,0.30206 4.20899,2.30558 4.20899,5.0293 0,2.39061 -1.23726,3.66015 -3.56446,3.66016 -4.11266,-10e-6 -6.19522,-3.75618 -3.98242,-7.1836 0.60801,-0.94178 1.47007,-1.41971 2.39649,-1.52344 z m 80.42773,8.70704 c 1.0192,0 4.50464,2.26819 7.74414,5.03906 3.6362,3.11012 5.62663,6.34202 5.20313,8.44726 -0.6107,3.03571 -1.46023,2.76058 -7.74219,-2.51953 -6.6987,-5.63031 -9.23158,-10.9668 -5.20508,-10.96679 z m -160.56836,0.75195 c 0.21205,0.004 0.39652,0.0486 0.54883,0.13867 3.22188,1.90617 2.14929,4.65327 -3.94336,10.10156 -6.5745,5.87925 -9.21484,6.56299 -9.21484,2.38672 0,-3.28552 8.20993,-11.48621 11.89453,-12.51953 0.26318,-0.0738 0.5028,-0.11115 0.71484,-0.10742 z m 52.0957,17.27148 c 5.83799,0 6.84008,0.59248 6.83008,4.05469 -0.0103,5.95583 -6.53491,15.18918 -12.99414,18.38672 -9.72387,4.81365 -13.35547,3.56585 -13.35547,-4.58984 0,-3.17666 2.2935,-7.30693 6.33985,-11.41407 5.00923,-5.0845 7.77801,-6.4375 13.17968,-6.4375 z m 58.75586,0 c 10.81186,0 22.43508,13.81953 18.94532,22.52539 -1.4968,3.73388 -6.53437,3.32271 -14.67383,-1.19531 -7.3277,-4.06738 -11.00586,-9.71748 -11.00586,-16.9082 0,-3.86904 0.84081,-4.42188 6.73437,-4.42188 z m -30.35937,5.32031 c 6.81934,-0.008 13.79405,2.80973 18.23242,8.01172 3.2138,3.7668 6.43936,15.10521 4.75586,16.7168 -0.4842,0.46348 -4.31857,-0.83701 -8.51953,-2.88867 -9.61596,-4.69628 -18.12071,-4.73493 -27.10547,-0.125 -8.68136,4.45415 -8.92188,4.45192 -8.92188,-0.0586 0,-6.2401 4.90259,-15.28117 10.03125,-18.49805 3.39998,-2.13259 7.43572,-3.15364 11.52735,-3.15821 z m 2.02539,41.65626 c -12.70632,-0.67178 -25.74032,7.95397 -28.54102,21.35937 -1.14601,5.48527 -1.06084,5.55859 6.54102,5.55859 6.30736,0 8.90877,-1.15506 14.35547,-6.36914 l 6.65234,-6.36718 6.65234,6.36718 c 5.4379,5.20563 8.05256,6.36914 14.32422,6.36914 7.4127,0 7.63021,-0.16833 6.44141,-4.95703 -1.6681,-6.71948 -6.74324,-13.15166 -14.2207,-18.02343 -3.77125,-2.45707 -7.96966,-3.71361 -12.20508,-3.9375 z m -9.38867,7.09179 c 5.74526,0 1.60268,8.41018 -6.07032,12.32227 -5.22276,2.6628 -6.24218,2.63315 -6.24218,-0.17578 0,-3.23199 9.0361,-12.14649 12.3125,-12.14649 z m 15.41601,0.24805 c 3.5472,-0.73295 13.68946,9.1181 13.68946,13.29687 0,1.47124 -0.21181,2.61743 -0.47071,2.54493 -4.07876,-1.14153 -12.29912,-7.46152 -14.07422,-10.82032 -1.97336,-3.73424 -1.84999,-4.46249 0.85547,-5.02148 z" /></g></svg>
